<?xml version="1.0" encoding="UTF-8"?>
<svg id="Layer_1" data-name="Layer 1" xmlns="http://www.w3.org/2000/svg" viewBox="0 0 145 316.12">
  <defs>
    <style>
      .cls-1 {
        fill: #f9a55f;
        stroke-width: 0px;
      }
    </style>
  </defs>
  <path class="cls-1" d="M24.46,145.83V41.72l82.29,82.29c8.54,8.8,13.79,20.79,13.79,34.02s-5.33,25.39-13.96,34.21l-.37.39L3.6,295.26c-4.79,4.77-4.79,12.52,0,17.29,2.4,2.37,5.53,3.57,8.66,3.57s6.26-1.2,8.63-3.57l102.62-102.64.73-.73c12.35-12.72,19.66-29.42,20.64-47.03.07-1.37.12-2.74.12-4.11s-.05-2.71-.12-4.08c-.98-17.54-8.22-34.24-20.52-46.91l-.86-.86L20.89,3.57C18.51,1.2,15.38,0,12.25,0S5.99,1.2,3.6,3.57C1.57,5.58.39,8.12.1,10.76c-.07.49-.1.95-.1,1.44v133.63c0,6.75,5.48,12.23,12.23,12.23s12.23-5.48,12.23-12.23Z"/>
</svg>