<?xml version="1.0" encoding="UTF-8"?>
<svg id="Layer_1" data-name="Layer 1" xmlns="http://www.w3.org/2000/svg" viewBox="0 0 330 330">
  <defs>
    <style>
      .cls-1 {
        fill: #1a1814;
        stroke-width: 0px;
      }
    </style>
  </defs>
  <path class="cls-1" d="M165,0C73.87,0,0,73.87,0,165s73.87,165,165,165,165-73.87,165-165S256.13,0,165,0ZM101.56,278.53c-31.32,0-56.7-25.39-56.7-56.71s25.38-56.7,56.7-56.7,56.7,25.39,56.7,56.7-25.38,56.71-56.7,56.71ZM134.16,110.59c-24.85,0-45-20.14-45-45s20.15-45,45-45,45,20.15,45,45-20.14,45-45,45ZM207.32,91.99c0-19.33,15.67-35,35-35s35,15.67,35,35-15.67,35-35,35-35-15.67-35-35ZM265.57,267.38c-8.28,0-15-6.71-15-15s6.72-15,15-15,15,6.72,15,15-6.71,15-15,15ZM278.74,204.57c-13.81,0-25-11.19-25-25s11.19-25,25-25,25,11.19,25,25-11.2,25-25,25Z"/>
</svg>