<?xml version="1.0" encoding="UTF-8"?>
<svg id="Layer_1" data-name="Layer 1" xmlns="http://www.w3.org/2000/svg" viewBox="0 0 340 303.9">
  <defs>
    <style>
      .cls-1 {
        fill: #1a1814;
        stroke-width: 0px;
      }
    </style>
  </defs>
  <path class="cls-1" d="M264.69,108.39c0,.32-.01.65-.06.98-.03.16-.06.34-.09.5-.03.14-.06.32-.1.48-.41,1.55-1.27,2.84-2.41,3.8-.42.36-.88.68-1.37.94-.18.09-.35.16-.54.26-.4.16-.84.32-1.29.42-.16.03-.32.06-.48.09-.21.03-.4.06-.62.07-.2.01-.39.03-.59.03-.54,0-1.08-.04-1.63-.19-.11-.01-.24-.04-.36-.07l-58.5-15.69c-4.03-1.07-6.44-5.22-5.35-9.26.9-3.38,3.97-5.6,7.29-5.6.66,0,1.31.08,1.97.26l40.87,10.95-36.02-62.36v-.02c-10.47-18.09-33.6-24.29-51.71-13.84-5.97,3.44-10.63,8.28-13.84,13.86l-12.9,22.34h.01s-22.33,38.69-22.33,38.69c-2.09,3.62-6.71,4.85-10.34,2.77-3.62-2.09-4.86-6.73-2.77-10.34l22.25-38.53h-.02s12.98-22.49,12.98-22.49h-.01c4.65-8.06,11.33-14.75,19.39-19.4,25.18-14.53,57.84-5.78,72.39,19.38v.02l45.16,78.19c.36.63.65,1.35.81,2.09.03.14.07.3.09.45.03.21.06.4.07.62.02.2.03.41.03.61Z"/>
  <path class="cls-1" d="M54.93,143.46c.28-.16.57-.32.88-.44.16-.06.33-.12.48-.17.14-.05.31-.11.47-.15,1.54-.42,3.1-.32,4.5.19.52.19,1.03.42,1.5.72.17.11.32.22.49.34.34.27.7.57,1.01.9.11.13.21.25.32.37.13.16.25.32.37.5.11.16.22.32.32.49.27.46.51.96.65,1.5.05.1.08.23.12.35l15.66,58.51c1.09,4.02-1.3,8.19-5.35,9.26-3.37.91-6.84-.63-8.5-3.51-.33-.57-.58-1.17-.76-1.83l-10.95-40.87-36,62.38h-.02c-10.43,18.12-4.24,41.25,13.87,51.71,5.96,3.45,12.49,5.07,18.92,5.05h25.79s0-.01,0-.01h44.66c4.18,0,7.56,3.38,7.57,7.57,0,4.18-3.4,7.58-7.57,7.57h-44.5s0,.02,0,.02h-25.96s0,0,0,0c-9.3,0-18.44-2.44-26.5-7.09C1.25,282.27-7.5,249.61,7.01,224.43h.02s45.14-78.21,45.14-78.21c.36-.63.84-1.24,1.4-1.75.11-.1.22-.21.35-.31.16-.13.32-.25.5-.37.16-.12.34-.23.51-.33Z"/>
  <path class="cls-1" d="M192.94,302.89c-.28-.16-.56-.33-.82-.54-.13-.11-.26-.22-.39-.33-.11-.1-.25-.21-.37-.33-1.13-1.13-1.83-2.52-2.09-3.99-.1-.55-.15-1.1-.13-1.66,0-.2.03-.39.04-.59.06-.43.15-.89.28-1.33.06-.16.11-.31.16-.47.08-.19.15-.38.25-.57.09-.17.17-.35.27-.52.27-.46.58-.92.97-1.32.07-.09.15-.18.24-.28l42.84-42.82c2.94-2.95,7.74-2.96,10.7,0,2.48,2.47,2.87,6.24,1.21,9.12-.33.57-.73,1.09-1.21,1.58l-29.92,29.92h72.02s.02,0,.02,0c20.9-.02,37.84-16.95,37.84-37.86,0-6.89-1.86-13.35-5.08-18.91l-12.89-22.34h-.01s-22.33-38.67-22.33-38.67c-2.09-3.62-.85-8.24,2.77-10.34,3.62-2.09,8.26-.85,10.34,2.77l22.24,38.54h.02s12.98,22.47,12.98,22.47h0c4.65,8.04,7.11,17.18,7.11,26.48,0,29.07-23.91,52.98-52.98,53h-.02s-90.29,0-90.29,0c-.72,0-1.49-.11-2.22-.34-.14-.05-.29-.09-.44-.15-.19-.08-.38-.15-.57-.25-.18-.08-.37-.18-.54-.28Z"/>
</svg>