<?xml version="1.0" encoding="UTF-8"?>
<svg id="Layer_1" data-name="Layer 1" xmlns="http://www.w3.org/2000/svg" viewBox="0 0 333.06 333.06">
  <defs>
    <style>
      .cls-1 {
        fill: none;
        stroke: #1a1814;
        stroke-miterlimit: 10;
        stroke-width: 13.06px;
      }
    </style>
  </defs>
  <path class="cls-1" d="M293.88,6.53h-65.31c-18.03,0-32.65,14.62-32.65,32.65,18.03,0,32.65,14.62,32.65,32.65s-14.62,32.65-32.65,32.65c0,18.03,14.62,32.65,32.65,32.65,0-18.03,14.62-32.65,32.65-32.65s32.65,14.62,32.65,32.65c18.03,0,32.65-14.62,32.65-32.65V39.18c0-18.03-14.62-32.65-32.65-32.65Z"/>
  <path class="cls-1" d="M137.14,39.18c0-18.03-14.62-32.65-32.65-32.65H39.18C21.15,6.53,6.53,21.15,6.53,39.18v65.31c0,18.03,14.62,32.65,32.65,32.65h65.31c18.03,0,32.65-14.62,32.65-32.65,18.03,0,32.65-14.62,32.65-32.65s-14.62-32.65-32.65-32.65Z"/>
  <path class="cls-1" d="M228.57,195.92c-18.03,0-32.65,14.62-32.65,32.65v65.31c0,18.03,14.62,32.65,32.65,32.65h65.31c18.03,0,32.65-14.62,32.65-32.65v-65.31c0-18.03-14.62-32.65-32.65-32.65,0-18.03-14.62-32.65-32.65-32.65s-32.65,14.62-32.65,32.65Z"/>
</svg>