<?xml version="1.0" encoding="UTF-8"?>
<svg id="Layer_1" data-name="Layer 1" xmlns="http://www.w3.org/2000/svg" viewBox="0 0 294.96 223.28">
  <defs>
    <style>
      .cls-1 {
        stroke-dasharray: 0 0 0 0 0 0 54.18 18.68 0 0 0 0;
      }

      .cls-1, .cls-2, .cls-3 {
        fill: none;
        stroke-miterlimit: 10;
      }

      .cls-1, .cls-3 {
        stroke: #414042;
        stroke-linecap: round;
        stroke-width: 10px;
      }

      .cls-2 {
        stroke: #1a1814;
        stroke-width: 14px;
      }
    </style>
  </defs>
  <g>
    <path class="cls-3" d="M195.55,7.14h29"/>
    <path class="cls-1" d="M243.23,7.14h21.73c1.67,0,10.52.17,17.68,7.32,4.52,4.52,7.32,10.77,7.32,17.68v159c0,13.81-11.19,25-25,25-10.75,0-21.49,0-32.24,0"/>
    <path class="cls-3" d="M232.72,216.14h-29"/>
  </g>
  <path class="cls-2" d="M227,37v149.28c0,15.58-11.88,28.39-27.07,29.86-.97.09-1.94.14-2.93.14H37c-16.57,0-30-13.43-30-30V37c0-16.57,13.43-30,30-30h160c.99,0,1.96.05,2.93.14,15.19,1.47,27.07,14.28,27.07,29.86Z"/>
</svg>