<?xml version="1.0" encoding="UTF-8"?>
<svg id="Layer_1" data-name="Layer 1" xmlns="http://www.w3.org/2000/svg" viewBox="0 0 224.87 330">
  <defs>
    <style>
      .cls-1 {
        fill: #1a1814;
        stroke-width: 0px;
      }
    </style>
  </defs>
  <path class="cls-1" d="M80.31,318.03c-37.68,0-68.33-30.65-68.33-68.33s30.65-68.35,68.33-68.35c18.94,0,37.21,7.97,50.12,21.88l18.22,19.62v26.85c0,37.68-30.65,68.33-68.33,68.33Z"/>
  <path class="cls-1" d="M80.31,193.31c15.85,0,30.54,6.41,41.34,18.05l15.02,16.18v22.15c0,31.08-25.28,56.36-56.36,56.36s-56.36-25.28-56.36-56.36,25.28-56.38,56.36-56.38M214.17,0h-42.83c-8.52,0-16.69,3.39-22.72,9.41-6.03,6.05-9.42,14.2-9.42,22.72v162.94c-14.67-15.8-35.62-25.7-58.89-25.7C35.95,169.37,0,205.33,0,249.69s35.95,80.31,80.31,80.31,80.31-35.95,80.31-80.31V32.13c0-5.91,4.8-10.71,10.73-10.71h42.83c2.95,0,5.62-1.2,7.57-3.12,1.92-1.95,3.12-4.63,3.12-7.59,0-5.91-4.8-10.71-10.69-10.71h0Z"/>
</svg>