<?xml version="1.0" encoding="UTF-8"?>
<svg id="Layer_1" data-name="Layer 1" xmlns="http://www.w3.org/2000/svg" viewBox="0 0 130 105">
  <defs>
    <style>
      .cls-1 {
        fill: #d8d4d7;
      }

      .cls-1, .cls-2 {
        stroke-width: 0px;
      }

      .cls-2 {
        fill: #1a1814;
      }
    </style>
  </defs>
  <path class="cls-2" d="M122.68,7.32c-4.69-4.69-11.05-7.32-17.68-7.32h-55c-6.62,0-12.99,2.63-17.67,7.32-4.69,4.69-7.33,11.05-7.33,17.68-6.62,0-12.99,2.63-17.67,7.32C2.64,37.01,0,43.37,0,50v2.5C0,53.88,1.12,55,2.5,55s2.5-1.12,2.5-2.5v-2.5c0-11.05,8.96-20,20-20h55c11.05,0,20,8.95,20,20v30c0,11.04-8.95,20-20,20h-2.5c-1.38,0-2.5,1.12-2.5,2.5s1.12,2.5,2.5,2.5h2.5c6.63,0,12.99-2.64,17.68-7.32,4.69-4.69,7.32-11.05,7.32-17.68,6.63,0,12.99-2.64,17.68-7.32,4.69-4.69,7.32-11.05,7.32-17.68v-30c0-6.63-2.63-12.99-7.32-17.68ZM125,55c0,11.04-8.95,20-20,20v-25c0-6.63-2.63-12.99-7.32-17.68-4.69-4.69-11.05-7.32-17.68-7.32H30c0-11.05,8.96-20,20-20h55c11.05,0,20,8.95,20,20v30Z"/>
  <path class="cls-1" d="M60,102.5c0,.69-.28,1.31-.73,1.77-.45.45-1.08.73-1.77.73H25c-6.63,0-12.99-2.64-17.68-7.32-4.68-4.69-7.32-11.05-7.32-17.68v-7.5c0-1.38,1.12-2.5,2.5-2.5.69,0,1.32.28,1.77.73.45.46.73,1.08.73,1.77v7.5c0,11.05,8.95,20,20,20h32.5c1.38,0,2.5,1.12,2.5,2.5Z"/>
</svg>