<?xml version="1.0" encoding="UTF-8"?>
<svg id="Layer_1" data-name="Layer 1" xmlns="http://www.w3.org/2000/svg" viewBox="0 0 330 266.54">
  <defs>
    <style>
      .cls-1 {
        fill: #1a1814;
        stroke-width: 0px;
      }
    </style>
  </defs>
  <path class="cls-1" d="M311.42,18.58c-11.91-11.91-28.05-18.58-44.88-18.58H126.92c-16.8,0-32.97,6.68-44.85,18.58-11.91,11.91-18.61,28.05-18.61,44.88-16.8,0-32.97,6.68-44.85,18.58C6.7,93.95,0,110.09,0,126.92v6.35c0,3.5,2.84,6.35,6.35,6.35s6.35-2.84,6.35-6.35v-6.35c0-28.05,22.74-50.77,50.77-50.77h139.62c28.05,0,50.77,22.72,50.77,50.77v76.15c0,28.02-22.72,50.77-50.77,50.77h-6.35c-3.5,0-6.35,2.84-6.35,6.35s2.84,6.35,6.35,6.35h6.35c16.83,0,32.97-6.7,44.88-18.58,11.91-11.91,18.58-28.05,18.58-44.88,16.83,0,32.97-6.7,44.88-18.58,11.91-11.91,18.58-28.05,18.58-44.88V63.46c0-16.83-6.68-32.97-18.58-44.88ZM317.31,139.62c0,28.02-22.72,50.77-50.77,50.77v-63.46c0-16.83-6.68-32.97-18.58-44.88-11.91-11.91-28.05-18.58-44.88-18.58h-126.92c0-28.05,22.74-50.77,50.77-50.77h139.62c28.05,0,50.77,22.72,50.77,50.77v76.15Z"/>
</svg>