<?xml version="1.0" encoding="UTF-8"?>
<svg id="Layer_1" data-name="Layer 1" xmlns="http://www.w3.org/2000/svg" viewBox="0 0 325.78 312.71">
  <defs>
    <style>
      .cls-1 {
        fill: none;
        stroke: #4ea58b;
        stroke-linecap: round;
        stroke-miterlimit: 10;
        stroke-width: 18.57px;
      }
    </style>
  </defs>
  <path class="cls-1" d="M112.98,85.22l31.97-64.79c7.34-14.86,28.53-14.86,35.87,0l31.97,64.79c2.91,5.9,8.54,9.99,15.06,10.94l71.5,10.39c16.4,2.38,22.95,22.54,11.08,34.11l-51.73,50.43c-4.71,4.59-6.86,11.21-5.75,17.7l12.21,71.21c2.8,16.34-14.35,28.8-29.02,21.08l-63.95-33.62c-5.83-3.06-12.79-3.06-18.61,0l-63.95,33.62c-14.67,7.71-31.82-4.75-29.02-21.08l12.21-71.21c1.11-6.49-1.04-13.11-5.75-17.7l-51.73-50.43c-11.87-11.57-5.32-31.73,11.08-34.11l71.5-10.39c6.51-.95,12.15-5.04,15.06-10.94Z"/>
</svg>