<?xml version="1.0" encoding="UTF-8"?>
<svg id="Layer_1" data-name="Layer 1" xmlns="http://www.w3.org/2000/svg" viewBox="0 0 603.16 603.43">
  <defs>
    <style>
      .cls-1 {
        font-size: 17.5px;
      }

      .cls-1, .cls-2, .cls-3, .cls-4, .cls-5 {
        fill: #d8d4d7;
      }

      .cls-1, .cls-4, .cls-5 {
        font-family: Metropolis-Medium, Metropolis;
        font-weight: 500;
      }

      .cls-2 {
        stroke-width: 0px;
      }

      .cls-3 {
        font-family: QurovaDEMO-Regular, 'Qurova DEMO';
        font-size: 200px;
      }

      .cls-4 {
        font-size: 20px;
      }

      .cls-5 {
        font-size: 15px;
      }
    </style>
  </defs>
  <text id="THUMBNAIL" class="cls-5" transform="translate(251.37 160.71) rotate(-17.9)"><tspan x="0" y="0">T</tspan></text>
  <text class="cls-5" transform="translate(260.23 157.82) rotate(-14.04)"><tspan x="0" y="0">H</tspan></text>
  <text class="cls-5" transform="translate(270.63 155.21) rotate(-9.86)"><tspan x="0" y="0">U</tspan></text>
  <text class="cls-5" transform="translate(281.5 153.28) rotate(-5.34)"><tspan x="0" y="0">M</tspan></text>
  <text class="cls-5" transform="translate(294.14 152.14) rotate(-1.02)"><tspan x="0" y="0">B</tspan></text>
  <text class="cls-5" transform="translate(304.27 151.93) rotate(3.02)"><tspan x="0" y="0">N</tspan></text>
  <text class="cls-5" transform="translate(315.64 152.53) rotate(7.29)"><tspan x="0" y="0">A</tspan></text>
  <text class="cls-5" transform="translate(326.71 154.03) rotate(10.13)"><tspan x="0" y="0">I</tspan></text>
  <text class="cls-5" transform="translate(330.36 154.63) rotate(12.44)"><tspan x="0" y="0">L</tspan></text>
  <text class="cls-5" transform="translate(338.48 156.47) rotate(14.84)"><tspan x="0" y="0">	</tspan></text>
  <text class="cls-5" transform="translate(355.41 161.78) rotate(21.67)"><tspan x="0" y="0">	</tspan></text>
  <text class="cls-5" transform="translate(386.69 178.17) rotate(35.22)"><tspan x="0" y="0"> </tspan></text>
  <text class="cls-5" transform="translate(390.15 180.6) rotate(36.83)"><tspan x="0" y="0">	</tspan></text>
  <text class="cls-5" transform="translate(413.29 201.4) rotate(48.67)"><tspan x="0" y="0">	</tspan></text>
  <text class="cls-5" transform="translate(433.75 230.18) rotate(62.16)"><tspan x="0" y="0">	</tspan></text>
  <text class="cls-5" transform="translate(446.9 262.93) rotate(75.76)"><tspan x="0" y="0">	</tspan></text>
  <text class="cls-5" transform="translate(452.1 297.79) rotate(90.93)"><tspan x="0" y="0">T</tspan></text>
  <text class="cls-5" transform="translate(452.04 307.17) rotate(93.99)"><tspan x="0" y="0">H</tspan></text>
  <text class="cls-5" transform="translate(451.31 317.85) rotate(98.12)"><tspan x="0" y="0">U</tspan></text>
  <text class="cls-5" transform="translate(449.79 328.8) rotate(102.67)"><tspan x="0" y="0">M</tspan></text>
  <text class="cls-5" transform="translate(446.97 341.14) rotate(107.06)"><tspan x="0" y="0">B</tspan></text>
  <text class="cls-5" transform="translate(444.02 350.83) rotate(111.19)"><tspan x="0" y="0">N</tspan></text>
  <text class="cls-5" transform="translate(439.92 361.44) rotate(115.51)"><tspan x="0" y="0">A</tspan></text>
  <text class="cls-5" transform="translate(435.01 371.5) rotate(118.36)"><tspan x="0" y="0">I</tspan></text>
  <text class="cls-5" transform="translate(433.31 374.77) rotate(120.66)"><tspan x="0" y="0">L</tspan></text>
  <text class="cls-5" transform="translate(429.01 381.93) rotate(123.05)"><tspan x="0" y="0">	</tspan></text>
  <text class="cls-5" transform="translate(418.68 396.35) rotate(129.81)"><tspan x="0" y="0">	</tspan></text>
  <text class="cls-5" transform="translate(393.4 421.01) rotate(143.25)"><tspan x="0" y="0">	</tspan></text>
  <text class="cls-5" transform="translate(363.07 439.1) rotate(156.79)"><tspan x="0" y="0">	</tspan></text>
  <text class="cls-5" transform="translate(329.36 449.55) rotate(170.39)"><tspan x="0" y="0">	</tspan></text>
  <text class="cls-5" transform="translate(294.12 451.83) rotate(-176.21)"><tspan x="0" y="0">	</tspan></text>
  <text class="cls-5" transform="translate(259.33 445.88) rotate(-162.67)"><tspan x="0" y="0">	</tspan></text>
  <text class="cls-5" transform="translate(226.91 431.91) rotate(-149.08)"><tspan x="0" y="0">	</tspan></text>
  <text class="cls-5" transform="translate(198.65 410.74) rotate(-135.62)"><tspan x="0" y="0"> </tspan></text>
  <text class="cls-5" transform="translate(195.6 407.84) rotate(-133.04)"><tspan x="0" y="0">T</tspan></text>
  <text class="cls-5" transform="translate(189.23 401.05) rotate(-129.23)"><tspan x="0" y="0">H</tspan></text>
  <text class="cls-5" transform="translate(182.44 392.76) rotate(-125.1)"><tspan x="0" y="0">U</tspan></text>
  <text class="cls-5" transform="translate(176.06 383.74) rotate(-120.57)"><tspan x="0" y="0">M</tspan></text>
  <text class="cls-5" transform="translate(169.64 372.81) rotate(-116.21)"><tspan x="0" y="0">B</tspan></text>
  <text class="cls-5" transform="translate(165.15 363.74) rotate(-112.08)"><tspan x="0" y="0">N</tspan></text>
  <text class="cls-5" transform="translate(160.87 353.2) rotate(-107.75)"><tspan x="0" y="0">A</tspan></text>
  <text class="cls-5" transform="translate(157.54 342.52) rotate(-104.9)"><tspan x="0" y="0">I</tspan></text>
  <text class="cls-5" transform="translate(156.55 338.97) rotate(-102.58)"><tspan x="0" y="0">L</tspan></text>
  <text class="cls-5" transform="translate(154.77 330.8) rotate(-100.17)"><tspan x="0" y="0">	</tspan></text>
  <text id="THUMBNAIL-2" data-name="THUMBNAIL" class="cls-1" transform="translate(126.93 298.1) rotate(-86.89)"><tspan x="0" y="0">T</tspan></text>
  <text class="cls-1" transform="translate(127.49 287.25) rotate(-83.04)"><tspan x="0" y="0">H</tspan></text>
  <text class="cls-1" transform="translate(128.99 274.83) rotate(-78.86)"><tspan x="0" y="0">U</tspan></text>
  <text class="cls-1" transform="translate(131.44 262.16) rotate(-74.32)"><tspan x="0" y="0">M</tspan></text>
  <text class="cls-1" transform="translate(135.48 247.95) rotate(-70.02)"><tspan x="0" y="0">B</tspan></text>
  <text class="cls-1" transform="translate(139.49 236.81) rotate(-65.98)"><tspan x="0" y="0">N</tspan></text>
  <text class="cls-1" transform="translate(144.89 224.69) rotate(-61.71)"><tspan x="0" y="0">A</tspan></text>
  <text class="cls-1" transform="translate(151.18 213.23) rotate(-58.86)"><tspan x="0" y="0">I</tspan></text>
  <text class="cls-1" transform="translate(153.34 209.54) rotate(-56.56)"><tspan x="0" y="0">L</tspan></text>
  <text class="cls-1" transform="translate(158.75 201.44) rotate(-54.15)"><tspan x="0" y="0">	</tspan></text>
  <text class="cls-1" transform="translate(171.62 185.22) rotate(-47.31)"><tspan x="0" y="0">	</tspan></text>
  <text class="cls-1" transform="translate(202.55 158.01) rotate(-33.76)"><tspan x="0" y="0"> </tspan></text>
  <text class="cls-1" transform="translate(206.65 155.26) rotate(-32.16)"><tspan x="0" y="0">	</tspan></text>
  <text class="cls-1" transform="translate(238.98 138.75) rotate(-20.32)"><tspan x="0" y="0">	</tspan></text>
  <text class="cls-1" transform="translate(278.88 128.51) rotate(-6.83)"><tspan x="0" y="0">	</tspan></text>
  <text class="cls-1" transform="translate(320.09 127.9) rotate(6.78)"><tspan x="0" y="0">	</tspan></text>
  <text class="cls-1" transform="translate(360.23 136.82) rotate(21.93)"><tspan x="0" y="0">T</tspan></text>
  <text class="cls-1" transform="translate(370.4 140.81) rotate(25.01)"><tspan x="0" y="0">H</tspan></text>
  <text class="cls-1" transform="translate(381.74 146.08) rotate(29.15)"><tspan x="0" y="0">U</tspan></text>
  <text class="cls-1" transform="translate(393.02 152.32) rotate(33.7)"><tspan x="0" y="0">M</tspan></text>
  <text class="cls-1" transform="translate(405.29 160.55) rotate(38.08)"><tspan x="0" y="0">B</tspan></text>
  <text class="cls-1" transform="translate(414.63 167.83) rotate(42.22)"><tspan x="0" y="0">N</tspan></text>
  <text class="cls-1" transform="translate(424.46 176.75) rotate(46.54)"><tspan x="0" y="0">A</tspan></text>
  <text class="cls-1" transform="translate(433.35 186.28) rotate(49.38)"><tspan x="0" y="0">I</tspan></text>
  <text class="cls-1" transform="translate(436.21 189.52) rotate(51.69)"><tspan x="0" y="0">L</tspan></text>
  <text class="cls-1" transform="translate(442.19 197.17) rotate(54.07)"><tspan x="0" y="0">	</tspan></text>
  <text class="cls-1" transform="translate(453.59 214.49) rotate(60.84)"><tspan x="0" y="0">	</tspan></text>
  <text class="cls-1" transform="translate(469.85 252.34) rotate(74.28)"><tspan x="0" y="0">	</tspan></text>
  <text class="cls-1" transform="translate(476.85 292.95) rotate(87.82)"><tspan x="0" y="0">	</tspan></text>
  <text class="cls-1" transform="translate(474.12 334.03) rotate(101.42)"><tspan x="0" y="0">	</tspan></text>
  <text class="cls-1" transform="translate(461.84 373.37) rotate(114.82)"><tspan x="0" y="0">	</tspan></text>
  <text class="cls-1" transform="translate(440.77 408.78) rotate(128.38)"><tspan x="0" y="0">	</tspan></text>
  <text class="cls-1" transform="translate(411.96 438.25) rotate(141.97)"><tspan x="0" y="0">	</tspan></text>
  <text class="cls-1" transform="translate(377.06 460.14) rotate(155.43)"><tspan x="0" y="0"> </tspan></text>
  <text class="cls-1" transform="translate(372.66 462.23) rotate(158.01)"><tspan x="0" y="0">T</tspan></text>
  <text class="cls-1" transform="translate(362.57 466.34) rotate(161.82)"><tspan x="0" y="0">H</tspan></text>
  <text class="cls-1" transform="translate(350.7 470.26) rotate(165.96)"><tspan x="0" y="0">U</tspan></text>
  <text class="cls-1" transform="translate(338.2 473.43) rotate(170.48)"><tspan x="0" y="0">M</tspan></text>
  <text class="cls-1" transform="translate(323.61 475.83) rotate(174.85)"><tspan x="0" y="0">B</tspan></text>
  <text class="cls-1" transform="translate(311.85 476.92) rotate(178.97)"><tspan x="0" y="0">N</tspan></text>
  <text class="cls-1" transform="translate(298.57 477.16) rotate(-176.7)"><tspan x="0" y="0">A</tspan></text>
  <text class="cls-1" transform="translate(285.56 476.31) rotate(-173.84)"><tspan x="0" y="0">I</tspan></text>
  <text class="cls-1" transform="translate(281.28 475.9) rotate(-171.53)"><tspan x="0" y="0">L</tspan></text>
  <text class="cls-1" transform="translate(271.67 474.42) rotate(-169.13)"><tspan x="0" y="0">	</tspan></text>
  <text id="THUMBNAIL-3" data-name="THUMBNAIL" class="cls-4" transform="translate(249.27 495.1) rotate(-162.89)"><tspan x="0" y="0">T</tspan></text>
  <text class="cls-4" transform="translate(237.37 491.47) rotate(-159.03)"><tspan x="0" y="0">H</tspan></text>
  <text class="cls-4" transform="translate(224.02 486.37) rotate(-154.85)"><tspan x="0" y="0">U</tspan></text>
  <text class="cls-4" transform="translate(210.66 480.16) rotate(-150.32)"><tspan x="0" y="0">M</tspan></text>
  <text class="cls-4" transform="translate(196.01 471.75) rotate(-146.02)"><tspan x="0" y="0">B</tspan></text>
  <text class="cls-4" transform="translate(184.76 464.21) rotate(-141.97)"><tspan x="0" y="0">N</tspan></text>
  <text class="cls-4" transform="translate(172.8 454.87) rotate(-137.7)"><tspan x="0" y="0">A</tspan></text>
  <text class="cls-4" transform="translate(161.86 444.75) rotate(-134.86)"><tspan x="0" y="0">I</tspan></text>
  <text class="cls-4" transform="translate(158.34 441.3) rotate(-132.55)"><tspan x="0" y="0">L</tspan></text>
  <text class="cls-4" transform="translate(150.88 433.09) rotate(-130.15)"><tspan x="0" y="0">	</tspan></text>
  <text class="cls-4" transform="translate(136.45 414.32) rotate(-123.31)"><tspan x="0" y="0">	</tspan></text>
  <text class="cls-4" transform="translate(114.81 372.48) rotate(-109.75)"><tspan x="0" y="0"> </tspan></text>
  <text class="cls-4" transform="translate(112.92 367.21) rotate(-108.16)"><tspan x="0" y="0">	</tspan></text>
  <text class="cls-4" transform="translate(103.55 326.76) rotate(-96.31)"><tspan x="0" y="0">	</tspan></text>
  <text class="cls-4" transform="translate(103.23 279.68) rotate(-82.82)"><tspan x="0" y="0">	</tspan></text>
  <text class="cls-4" transform="translate(113.95 233.82) rotate(-69.21)"><tspan x="0" y="0">	</tspan></text>
  <text class="cls-4" transform="translate(134.96 191.76) rotate(-54.07)"><tspan x="0" y="0">T</tspan></text>
  <text class="cls-4" transform="translate(142.2 181.59) rotate(-50.98)"><tspan x="0" y="0">H</tspan></text>
  <text class="cls-4" transform="translate(151.19 170.46) rotate(-46.83)"><tspan x="0" y="0">U</tspan></text>
  <text class="cls-4" transform="translate(161.21 159.7) rotate(-42.29)"><tspan x="0" y="0">M</tspan></text>
  <text class="cls-4" transform="translate(173.76 148.36) rotate(-37.9)"><tspan x="0" y="0">B</tspan></text>
  <text class="cls-4" transform="translate(184.39 140.03) rotate(-33.77)"><tspan x="0" y="0">N</tspan></text>
  <text class="cls-4" transform="translate(197.03 131.58) rotate(-29.44)"><tspan x="0" y="0">A</tspan></text>
  <text class="cls-4" transform="translate(210.05 124.37) rotate(-26.6)"><tspan x="0" y="0">I</tspan></text>
  <text class="cls-4" transform="translate(214.44 122.1) rotate(-24.29)"><tspan x="0" y="0">L</tspan></text>
  <text class="cls-4" transform="translate(224.58 117.59) rotate(-21.9)"><tspan x="0" y="0">	</tspan></text>
  <text class="cls-4" transform="translate(246.94 109.74) rotate(-15.14)"><tspan x="0" y="0">	</tspan></text>
  <text class="cls-4" transform="translate(293.41 102.19) rotate(-1.69)"><tspan x="0" y="0">	</tspan></text>
  <text class="cls-4" transform="translate(340.38 105.67) rotate(11.84)"><tspan x="0" y="0">	</tspan></text>
  <text class="cls-4" transform="translate(385.21 120.09) rotate(25.46)"><tspan x="0" y="0">	</tspan></text>
  <text class="cls-4" transform="translate(425.42 144.61) rotate(38.85)"><tspan x="0" y="0">	</tspan></text>
  <text class="cls-4" transform="translate(458.83 177.77) rotate(52.41)"><tspan x="0" y="0">	</tspan></text>
  <text class="cls-4" transform="translate(483.51 217.87) rotate(66)"><tspan x="0" y="0">	</tspan></text>
  <text class="cls-4" transform="translate(498.12 262.64) rotate(79.47)"><tspan x="0" y="0"> </tspan></text>
  <text class="cls-4" transform="translate(499.22 268.1) rotate(82.04)"><tspan x="0" y="0">T</tspan></text>
  <text class="cls-4" transform="translate(500.99 280.43) rotate(85.85)"><tspan x="0" y="0">H</tspan></text>
  <text class="cls-4" transform="translate(502.04 294.68) rotate(89.99)"><tspan x="0" y="0">U</tspan></text>
  <text class="cls-4" transform="translate(502.09 309.41) rotate(94.52)"><tspan x="0" y="0">M</tspan></text>
  <text class="cls-4" transform="translate(500.71 326.25) rotate(98.88)"><tspan x="0" y="0">B</tspan></text>
  <text class="cls-4" transform="translate(498.66 339.62) rotate(103.01)"><tspan x="0" y="0">N</tspan></text>
  <text class="cls-4" transform="translate(495.25 354.38) rotate(107.33)"><tspan x="0" y="0">A</tspan></text>
  <text class="cls-4" transform="translate(490.69 368.59) rotate(110.2)"><tspan x="0" y="0">I</tspan></text>
  <text class="cls-4" transform="translate(489.04 373.25) rotate(112.52)"><tspan x="0" y="0">L</tspan></text>
  <text class="cls-4" transform="translate(484.74 383.49) rotate(114.92)"><tspan x="0" y="0">	</tspan></text>
  <g>
    <g>
      <g>
        <polygon class="cls-2" points="180.8 353.23 176.48 361.04 211.69 361.04 213.19 358.33 241.8 306.63 224.14 274.94 180.8 353.23"/>
        <path class="cls-2" d="M310.49,361.04c-.2-6.95.22-13.89.26-20.84,0-1.32.53-2.4,1.31-3.21-.2-.95-.4-1.89-.6-2.84-.34-1.62.05-3,.84-4.05l-43.16-77.98-11.49-20.76-1.3-2.91h-6.74l-1.35,2.92-11.49,20.75-1.41,2.55-.06.11,17.66,31.69.51.93,12.91,23.32,26.35,47.62,1.5,2.71h16.27Z"/>
      </g>
      <text class="cls-3" transform="translate(285.97 361.02)"><tspan x="0" y="0">R</tspan></text>
    </g>
    <g>
      <rect class="cls-2" x="346.78" y="257.6" width="4.75" height="48.75" transform="translate(396.65 728.25) rotate(-135)"/>
      <rect class="cls-2" x="330.23" y="297.57" width="4.75" height="26.11"/>
      <rect class="cls-2" x="247.16" y="291.43" width="4.75" height="67.83"/>
      <rect class="cls-2" x="259.55" y="352.19" width="4.75" height="36.92" transform="translate(-185.38 293.77) rotate(-45)"/>
      <rect class="cls-2" x="366.81" y="352.14" width="4.75" height="36.97" transform="translate(370.21 -152.5) rotate(45)"/>
      <rect class="cls-2" x="313.16" y="340.74" width="4.75" height="84.52" transform="translate(-67.46 698.54) rotate(-90)"/>
      <rect class="cls-2" x="234.79" y="261.57" width="4.75" height="36.97" transform="translate(-128.57 249.72) rotate(-45)"/>
      <rect class="cls-2" x="213.25" y="257.53" width="4.75" height="20.31" transform="translate(-52.06 483.31) rotate(-90)"/>
      <rect class="cls-2" x="333.99" y="320.14" width="4.75" height="12.62" transform="translate(-132.32 333.46) rotate(-45)"/>
      <rect class="cls-2" x="379.18" y="343.15" width="4.75" height="15.96"/>
      <rect class="cls-2" x="372.22" y="326.34" width="4.75" height="21.67" transform="translate(-128.7 363.64) rotate(-45)"/>
      <rect class="cls-2" x="351.52" y="315.47" width="4.75" height="29.49" transform="translate(23.69 684.11) rotate(-90)"/>
      <circle class="cls-2" cx="365.3" cy="266" r="7.5"/>
      <circle class="cls-2" cx="205.8" cy="267.69" r="7.5"/>
    </g>
  </g>
</svg>