<?xml version="1.0" encoding="UTF-8"?>
<svg id="Layer_1" data-name="Layer 1" xmlns="http://www.w3.org/2000/svg" viewBox="0 0 251.09 222">
  <defs>
    <style>
      .cls-1 {
        font-family: QurovaDEMO-Regular, 'Qurova DEMO';
        font-size: 200px;
      }

      .cls-1, .cls-2 {
        fill: #1a1814;
      }

      .cls-2 {
        stroke-width: 0px;
      }
    </style>
  </defs>
  <g>
    <g>
      <polygon class="cls-2" points="4.32 162.21 0 170.02 35.2 170.02 36.71 167.31 65.31 115.61 47.66 83.91 4.32 162.21"/>
      <path class="cls-2" d="M134.01,170.02c-.2-6.95.22-13.89.26-20.84,0-1.32.53-2.4,1.31-3.21-.2-.95-.4-1.89-.6-2.84-.34-1.62.05-3,.84-4.05l-43.16-77.98-11.49-20.76-1.3-2.91h-6.74l-1.35,2.92-11.49,20.75-1.41,2.55-.06.11,17.66,31.69.51.93,12.91,23.32,26.35,47.62,1.5,2.71h16.27Z"/>
    </g>
    <text class="cls-1" transform="translate(109.49 170)"><tspan x="0" y="0">R</tspan></text>
  </g>
  <g>
    <rect class="cls-2" x="170.3" y="66.57" width="4.75" height="48.75" transform="translate(230.45 277.36) rotate(-135)"/>
    <rect class="cls-2" x="153.74" y="106.54" width="4.75" height="26.11"/>
    <rect class="cls-2" x="70.68" y="100.41" width="4.75" height="67.83"/>
    <rect class="cls-2" x="83.06" y="161.17" width="4.75" height="36.92" transform="translate(-101.99 113.03) rotate(-45)"/>
    <rect class="cls-2" x="190.33" y="161.12" width="4.75" height="36.97" transform="translate(183.44 -83.66) rotate(45)"/>
    <rect class="cls-2" x="136.68" y="149.72" width="4.75" height="84.52" transform="translate(-52.92 331.03) rotate(-90)"/>
    <rect class="cls-2" x="58.3" y="70.55" width="4.75" height="36.97" transform="translate(-45.18 68.98) rotate(-45)"/>
    <rect class="cls-2" x="36.77" y="66.51" width="4.75" height="20.31" transform="translate(-37.52 115.8) rotate(-90)"/>
    <rect class="cls-2" x="157.51" y="129.12" width="4.75" height="12.62" transform="translate(-48.93 152.72) rotate(-45)"/>
    <rect class="cls-2" x="202.7" y="152.12" width="4.75" height="15.96"/>
    <rect class="cls-2" x="195.74" y="135.32" width="4.75" height="21.67" transform="translate(-45.32 182.89) rotate(-45)"/>
    <rect class="cls-2" x="175.04" y="124.44" width="4.75" height="29.49" transform="translate(38.23 316.6) rotate(-90)"/>
    <circle class="cls-2" cx="188.81" cy="74.97" r="7.5"/>
    <circle class="cls-2" cx="29.32" cy="76.66" r="7.5"/>
  </g>
</svg>