<?xml version="1.0" encoding="UTF-8"?>
<svg id="Layer_1" data-name="Layer 1" xmlns="http://www.w3.org/2000/svg" viewBox="0 0 244.48 166.36">
  <defs>
    <style>
      .cls-1 {
        fill: #d8d4d7;
        stroke-width: 0px;
      }
    </style>
  </defs>
  <g>
    <g>
      <polygon class="cls-1" points="4.32 134.21 0 142.02 35.2 142.02 36.71 139.31 65.31 87.61 47.66 55.91 4.32 134.21"/>
      <path class="cls-1" d="M134.01,142.02c-.2-6.95.22-13.89.26-20.84,0-1.32.53-2.4,1.31-3.21-.2-.95-.4-1.89-.6-2.84-.34-1.62.05-3,.84-4.05l-43.16-77.98-11.49-20.76-1.3-2.91h-6.74l-1.35,2.92-11.49,20.75-1.41,2.55-.06.11,17.66,31.69.51.93,12.91,23.32,26.35,47.62,1.5,2.71h16.27Z"/>
    </g>
    <path class="cls-1" d="M172.69,96.6v-17.6h5c24.8,0,39.8-10.2,39.8-30.4s-13.8-30.8-39.2-30.8-41.4,13.8-41.4,37.6v86.6h-19V55.4C117.89,22,141.69,0,178.29,0s58.2,18.6,58.2,47.8c0,25.2-17.4,39-35.8,39v1.8c12.4,0,23.2,7.2,28.2,18.8l15.6,34.6h-21l-10.4-24.4c-5.8-15-15.8-21-35.2-21h-5.2Z"/>
  </g>
  <g>
    <rect class="cls-1" x="170.3" y="38.57" width="4.75" height="48.75" transform="translate(250.25 229.56) rotate(-135)"/>
    <rect class="cls-1" x="153.74" y="78.54" width="4.75" height="26.11"/>
    <rect class="cls-1" x="70.68" y="72.41" width="4.75" height="67.83"/>
    <rect class="cls-1" x="83.06" y="133.17" width="4.75" height="36.92" transform="translate(-82.2 104.82) rotate(-45)"/>
    <rect class="cls-1" x="190.33" y="133.12" width="4.75" height="36.97" transform="translate(163.64 -91.86) rotate(45)"/>
    <rect class="cls-1" x="136.68" y="121.72" width="4.75" height="84.52" transform="translate(-24.92 303.03) rotate(-90)"/>
    <rect class="cls-1" x="58.3" y="42.55" width="4.75" height="36.97" transform="translate(-25.38 60.78) rotate(-45)"/>
    <rect class="cls-1" x="36.77" y="38.51" width="4.75" height="20.31" transform="translate(-9.52 87.8) rotate(-90)"/>
    <rect class="cls-1" x="157.51" y="101.12" width="4.75" height="12.62" transform="translate(-29.14 144.52) rotate(-45)"/>
    <rect class="cls-1" x="202.7" y="124.12" width="4.75" height="15.96"/>
    <rect class="cls-1" x="195.74" y="107.32" width="4.75" height="21.67" transform="translate(-25.52 174.69) rotate(-45)"/>
    <rect class="cls-1" x="175.04" y="96.44" width="4.75" height="29.49" transform="translate(66.23 288.6) rotate(-90)"/>
    <circle class="cls-1" cx="188.81" cy="46.97" r="7.5"/>
    <circle class="cls-1" cx="29.32" cy="48.66" r="7.5"/>
  </g>
</svg>